<svg xmlns="http://www.w3.org/2000/svg" xmlns:xlink="http://www.w3.org/1999/xlink" viewBox="0 0 1280 720"><defs><radialGradient id="radial-gradient" cx="640" cy="360" r="640" gradientUnits="userSpaceOnUse"><stop offset="0" stop-color="#6f7073"/><stop offset="0.1" stop-color="#5a5b5d"/><stop offset="0.41" stop-color="#191a1a"/><stop offset="0.56"/></radialGradient><radialGradient id="radial-gradient-2" cx="640" cy="360" r="640" gradientUnits="userSpaceOnUse"><stop offset="0.27" stop-color="#fff" stop-opacity="0"/><stop offset="0.7"/></radialGradient></defs><title>Artboard 1</title><g style="isolation:isolate"><g id="Layer_1" data-name="Layer 1"><rect width="1280" height="720"/><rect y="-280" width="1280" height="1280" style="fill:url(#radial-gradient)"/><path d="M704.11,915.62A498.86,498.86,0,0,1,585,901c-4.88-1.14-9.7-2.53-14.54-3.83-2.43-.63-4.81-1.4-7.22-2.1s-4.81-1.42-7.2-2.17c-9.54-3.08-19-6.26-28.39-9.91s-18.59-7.49-27.75-11.56c-9.09-4.22-18.14-8.54-27-13.29s-17.54-9.69-26.13-14.85-17-10.67-25.15-16.45-16.24-11.73-24.14-17.9l-5.85-4.72-2.92-2.36-2.87-2.43-5.73-4.86-5.62-5A496,496,0,0,1,240.21,593.15a492.05,492.05,0,0,1-27.84-116.54,480,480,0,0,1-3.13-59.92l.4-15c0-2.51.28-5,.46-7.5l.58-7.5.58-7.5,1-7.46,1-7.46c.33-2.48.58-5,1.08-7.44l2.66-14.8c.39-2.48,1-4.9,1.59-7.35l1.7-7.32c.58-2.44,1.11-4.89,1.73-7.32l2.06-7.23,2.06-7.23,1-3.61,1.2-3.56,4.84-14.24c1.76-4.69,3.66-9.33,5.49-14s3.92-9.22,6-13.79l3.11-6.84.78-1.71.86-1.67,1.72-3.34A380.49,380.49,0,0,1,282,191.3l4.36-6.12c.73-1,1.44-2.05,2.2-3l2.32-3,9.31-11.8L310,156l2.46-2.84,2.59-2.72,5.19-5.43A398.46,398.46,0,0,1,415.3,72.3,390.47,390.47,0,0,1,527.76,31.37l14.78-2.62c1.23-.2,2.46-.47,3.7-.62l3.72-.47,7.45-.94,7.45-.94c2.49-.24,5-.39,7.48-.59l7.48-.56,3.74-.28,1.87-.14,1.88-.05,15-.36,3.75-.08,3.76.1,7.52.2c5,0,10,.56,15,.91l3.75.29c1.25.09,2.5.18,3.74.36l7.46,1A316,316,0,0,1,920.64,305.31c.15,1.24.33,2.48.45,3.72l.28,3.74.56,7.48.28,3.74c.11,1.25.08,2.5.13,3.75l.18,7.5.09,3.75c0,1.25.06,2.5,0,3.75l-.2,7.52-.1,3.76-.28,3.75-.58,7.5-.15,1.87-.24,1.86-.48,3.73c-.33,2.48-.62,5-1,7.45l-1.33,7.4c-.45,2.47-.85,4.94-1.47,7.37-1.15,4.88-2.17,9.79-3.65,14.58l-2.07,7.23-2.42,7.12c-1.51,4.78-3.51,9.39-5.31,14.06-.87,2.35-2,4.59-3,6.88s-2,4.58-3.13,6.83a262.86,262.86,0,0,1-32.42,50.45c-1.61,1.92-3.27,3.79-4.91,5.69s-3.24,3.82-5,5.59c-3.47,3.61-6.86,7.3-10.56,10.68-1.82,1.72-3.61,3.47-5.46,5.15l-5.68,4.91-2.84,2.45c-1,.8-2,1.55-2.95,2.33l-5.91,4.63c-2,1.54-4.06,2.92-6.09,4.39l-3.06,2.17c-1,.73-2,1.45-3.11,2.11l-6.33,4c-1.06.66-2.09,1.37-3.18,2l-3.26,1.87-6.51,3.73c-2.21,1.17-4.45,2.29-6.68,3.43-4.41,2.37-9,4.32-13.58,6.39-2.26,1.08-4.62,1.93-6.94,2.86l-7,2.74-7.11,2.4c-2.37.8-4.73,1.63-7.16,2.27a258.71,258.71,0,0,1-59,10.18c-2.5.12-5,.14-7.5.21l-3.75.09c-1.25,0-2.5.08-3.75,0l-7.51-.2c-1.25,0-2.5-.1-3.75-.21l-3.75-.29-3.75-.29c-1.25-.09-2.49-.3-3.73-.44-2.48-.33-5-.62-7.45-1-4.93-.9-9.88-1.68-14.74-2.92-4.91-1-9.69-2.54-14.51-3.9-4.74-1.63-9.52-3.14-14.14-5.08-2.33-.92-4.67-1.81-6.93-2.89s-4.57-2-6.83-3.13l-6.68-3.43-1.67-.86-1.63-.94L567.08,567a194.13,194.13,0,0,1-24.76-17c-1-.78-2-1.54-2.94-2.34l-2.84-2.46-2.84-2.46-1.42-1.23-1.36-1.3-5.43-5.19-5.19-5.43c-1.76-1.78-3.35-3.72-5-5.6s-3.3-3.76-4.81-5.77-3.11-3.93-4.61-5.93l-4.34-6.13a210.67,210.67,0,0,1-15.11-25.93,200.86,200.86,0,0,1-17.91-57.09c-.41-2.47-.65-5-1-7.44l-.46-3.72-.28-3.74c-.16-2.5-.42-5-.51-7.49l-.18-7.5a165.48,165.48,0,0,1,2.45-29.92,161.23,161.23,0,0,1,21-56,163.43,163.43,0,0,1,39.87-44.5c31.67-24.51,72.66-36.79,112.6-33a130.11,130.11,0,0,1,97.75,62.37,132.43,132.43,0,0,1,12.34,27.3,127.36,127.36,0,0,1,5.7,29.4c.09,1.25.2,2.49.27,3.74l.09,3.75c.11,2.5,0,5-.06,7.51,0,1.25-.18,2.5-.26,3.75l-.15,1.87c-.06.62-.15,1.24-.23,1.86l-.49,3.73-.67,3.7a102.89,102.89,0,0,1-9.9,28.26,104.36,104.36,0,0,1-41.27,42.5,103,103,0,0,1-57.75,12.95,82.64,82.64,0,0,1-28.85-7.79,82.91,82.91,0,0,1-47.18-71.57,66.4,66.4,0,0,1,48.87-67.52A64.74,64.74,0,0,1,635,313.49c1.25,0,2.5-.13,3.75,0l3.75.19a13.16,13.16,0,0,1,1.86.21l1.86.29,1.86.29a18.25,18.25,0,0,1,1.83.43l3.64.94,3.53,1.29c.58.23,1.19.4,1.75.68l1.69.82,1.69.82.84.41c.27.15.54.32.81.48l3.21,2c1.06.67,2,1.48,3,2.21l1.5,1.13,1.39,1.26c.91.86,1.88,1.65,2.74,2.56a52.73,52.73,0,0,1,14,26.1c.27,1.22.4,2.47.6,3.7l.28,1.85c.05.62.07,1.25.1,1.87l.18,3.74-.19,3.75a43,43,0,0,1-4,14.39,42.32,42.32,0,0,1-21,20.53,42.8,42.8,0,0,1-14.47,3.57,34.31,34.31,0,0,1-14.74-2A33.62,33.62,0,0,1,624,398.78a34.48,34.48,0,0,1-7.78-12.67l-.32-.88c-.09-.3-.16-.6-.24-.91l-.46-1.82a14.06,14.06,0,0,1-.34-1.84l-.28-1.85c-.12-1.24-.14-2.49-.21-3.74l.09-1.87,0-.94.14-.93a26.83,26.83,0,0,1,2-7.2,26.91,26.91,0,0,1,9.43-11.41c.5-.38,1.06-.66,1.58-1a12.86,12.86,0,0,1,1.64-.9L631,350l1.76-.64a12.76,12.76,0,0,1,1.79-.54c.61-.14,1.2-.34,1.82-.44a27.09,27.09,0,0,1,3.72-.43,20.84,20.84,0,0,1,7.42.78,21.67,21.67,0,0,1,15.66,22.77A17.54,17.54,0,0,1,655.75,384a17.12,17.12,0,0,1-6.89,2.77,15,15,0,0,1-7.39-.48,13.88,13.88,0,0,1-9.22-10.85,11.55,11.55,0,0,1,1-7.28,11.07,11.07,0,0,1,5.27-5.09,10.4,10.4,0,0,1,7.28-.62,9,9,0,0,1,5.42,4.8,7.9,7.9,0,0,1-.14,7.18,7.11,7.11,0,0,1-6.15,3.57,7.1,7.1,0,0,0,6.13-3.58,7.87,7.87,0,0,0,.12-7.15,8.9,8.9,0,0,0-5.41-4.77,10.33,10.33,0,0,0-7.23.64,11,11,0,0,0-5.22,5.06,11.44,11.44,0,0,0-1,7.21,13.75,13.75,0,0,0,9.16,10.72,14.8,14.8,0,0,0,7.31.46,16.94,16.94,0,0,0,6.81-2.76A17.33,17.33,0,0,0,663,371.5a21.4,21.4,0,0,0-15.51-22.44,20.52,20.52,0,0,0-7.31-.75,26.76,26.76,0,0,0-3.67.43c-.61.1-1.2.29-1.8.43a12.51,12.51,0,0,0-1.77.53l-1.74.64-1.67.8a12.6,12.6,0,0,0-1.61.9c-.52.33-1.07.61-1.56,1a26.52,26.52,0,0,0-9.27,11.27,26.41,26.41,0,0,0-2,7.09l-.14.91,0,.92-.09,1.84c.08,1.23.1,2.47.22,3.69l.28,1.83a13.77,13.77,0,0,0,.34,1.81l.46,1.79c.08.3.15.6.24.89l.32.87a34,34,0,0,0,7.7,12.47,33.09,33.09,0,0,0,12.29,8,33.74,33.74,0,0,0,14.51,2,42.19,42.19,0,0,0,14.26-3.56,41.65,41.65,0,0,0,20.64-20.26A42.26,42.26,0,0,0,690,370.39l.18-3.69L690,363c0-.61-.05-1.23-.11-1.84l-.28-1.83c-.2-1.21-.34-2.44-.6-3.64A51.91,51.91,0,0,0,675.13,330c-.84-.9-1.8-1.67-2.7-2.51l-1.37-1.24-1.48-1.1c-1-.72-1.95-1.51-3-2.17l-3.16-1.91c-.26-.16-.52-.33-.79-.47l-.83-.4-1.66-.8-1.66-.8c-.55-.28-1.15-.44-1.72-.67l-3.47-1.26-3.57-.91a17.7,17.7,0,0,0-1.79-.42l-1.82-.28-1.82-.28a12.75,12.75,0,0,0-1.83-.21,69.41,69.41,0,0,0-7.38-.16,63.75,63.75,0,0,0-14.57,2.28,65.27,65.27,0,0,0-47.89,66.49,81.85,81.85,0,0,0,46.57,70.28,81.12,81.12,0,0,0,28.34,7.57,101.37,101.37,0,0,0,56.78-12.89,102.56,102.56,0,0,0,40.45-41.87,101,101,0,0,0,9.64-27.76l.64-3.63.47-3.66c.07-.61.16-1.22.22-1.83l.14-1.84c.08-1.23.21-2.45.25-3.68.05-2.46.16-4.91,0-7.38l-.1-3.69c-.07-1.23-.18-2.46-.27-3.68a125.29,125.29,0,0,0-5.68-28.91,130.28,130.28,0,0,0-12.2-26.81A128.39,128.39,0,0,0,697,251.64a127,127,0,0,0-55.22-19.19c-2.45-.19-4.9-.41-7.35-.53l-3.69-.09c-1.23,0-2.46-.07-3.69,0-2.46.08-4.92.1-7.38.23l-7.36.57A159.92,159.92,0,0,0,492.1,309a158.18,158.18,0,0,0-20.46,55,162.3,162.3,0,0,0-2.32,29.35l.2,7.38c.09,2.46.35,4.91.52,7.37l.28,3.68.47,3.66c.33,2.44.58,4.89,1,7.32a197.5,197.5,0,0,0,17.76,56.09,207.2,207.2,0,0,0,14.92,25.44l4.28,6c1.48,2,3,3.87,4.55,5.81s3.13,3.8,4.74,5.65,3.19,3.75,4.93,5.49l5.11,5.32,5.35,5.08,1.34,1.27,1.39,1.21,2.79,2.41,2.79,2.41c.94.79,1.93,1.52,2.89,2.29A190.41,190.41,0,0,0,569,563.78l3.2,1.83,1.6.92,1.64.84,6.57,3.35c2.22,1.05,4.48,2,6.71,3.05s4.52,1.92,6.81,2.82c4.54,1.9,9.24,3.36,13.89,4.95,4.73,1.32,9.43,2.79,14.24,3.79,4.77,1.2,9.63,1.95,14.47,2.83,2.43.34,4.87.62,7.31.94,1.22.14,2.43.34,3.66.43l3.68.27,3.68.27c1.22.1,2.45.19,3.68.2l7.37.18c1.23.06,2.46,0,3.69,0l3.69-.1c2.46-.08,4.92-.1,7.38-.23a254.57,254.57,0,0,0,58-10.17c2.38-.63,4.7-1.46,7-2.25l7-2.37,6.87-2.71c2.28-.92,4.6-1.76,6.82-2.82,4.47-2.05,9-4,13.33-6.32,2.18-1.13,4.38-2.23,6.56-3.39l6.39-3.69,3.2-1.84c1.07-.61,2.08-1.32,3.12-2l6.21-4c1-.65,2-1.36,3-2.08l3-2.14c2-1.45,4-2.81,6-4.33l5.8-4.57c1-.77,1.94-1.51,2.89-2.29l2.79-2.42,5.57-4.84c1.81-1.66,3.57-3.39,5.35-5.08,3.63-3.33,6.94-7,10.34-10.52,1.73-1.75,3.28-3.66,4.91-5.51s3.23-3.71,4.81-5.6a258.18,258.18,0,0,0,31.7-49.6c1.06-2.22,2-4.48,3.05-6.71s2.09-4.45,2.94-6.76c1.76-4.59,3.71-9.11,5.17-13.8l2.35-7,2-7.09c1.44-4.7,2.42-9.52,3.54-14.31.6-2.38,1-4.81,1.42-7.23l1.29-7.26c.35-2.43.62-4.87.94-7.31l.46-3.66.23-1.83.14-1.84.55-7.35.27-3.68.09-3.68.18-7.37c.05-1.23,0-2.46,0-3.69l-.1-3.69-.2-7.38c-.05-1.23,0-2.46-.14-3.69l-.29-3.68-.57-7.36-.28-3.68c-.13-1.22-.31-2.44-.46-3.66a311.09,311.09,0,0,0-269-273.14l-7.31-.92c-1.22-.18-2.44-.26-3.67-.35l-3.68-.27c-4.9-.33-9.79-.85-14.71-.86l-7.37-.18-3.68-.09-3.69.09-14.76.39-1.85.05-1.84.14-3.68.29-7.36.57c-2.45.2-4.91.35-7.36.6l-7.32.94-7.32.94-3.66.47c-1.22.16-2.42.42-3.64.62L529,37.81A383.75,383.75,0,0,0,418.62,78.32,391.43,391.43,0,0,0,325.43,150l-5.08,5.35-2.54,2.67-2.41,2.79L305.75,172l-9.11,11.61-2.28,2.9c-.74,1-1.43,2-2.15,3l-4.27,6a373.07,373.07,0,0,0-30.2,50.6l-1.68,3.28-.84,1.64-.76,1.68-3,6.72c-2,4.49-4.13,8.92-5.83,13.54s-3.63,9.13-5.35,13.74l-4.71,14-1.17,3.5-1,3.55-2,7.09-2,7.09c-.6,2.38-1.11,4.79-1.67,7.18l-1.65,7.18c-.53,2.4-1.17,4.78-1.54,7.21L222,358c-.48,2.41-.72,4.86-1,7.29l-.92,7.31L219.1,380l-.55,7.35-.55,7.35c-.16,2.45-.43,4.9-.43,7.36l-.35,14.74a484.79,484.79,0,0,0,30.9,173.45A487.91,487.91,0,0,0,380.57,782.84l5.53,4.88,5.64,4.75,2.82,2.38,2.87,2.31,5.75,4.62c7.77,6,15.63,11.95,23.74,17.5s16.36,10.91,24.72,16.08,17,10,25.68,14.5,17.56,8.85,26.48,13c9,4,18,7.83,27.25,11.27s18.5,6.65,27.86,9.64c2.35.73,4.71,1.4,7.06,2.11s4.7,1.43,7.08,2c4.75,1.26,9.48,2.61,14.26,3.71a489,489,0,0,0,116.8,14h0a5,5,0,1,1,0,10Z" style="fill:#a91f23"/><rect y="-280" width="1280" height="1280" style="mix-blend-mode:color-burn;fill:url(#radial-gradient-2)"/></g></g></svg>